# xmcd CD database file
#
# Track frame offsets:
#	150
#	24818
#	36593
#	61268
#
# Disc length: 1145 seconds
#
# Revision: 0
# Processed by: cddbd v1.5PL3 Copyright (c) Steve Scherf et al.
# Submitted via: CDex 1.50beta8
#
DISCID=2a047704
DTITLE=霜月はるか - 何処へ行くの、あの日
DYEAR=2004
DGENRE=Game
TTITLE0=追憶の破片
TTITLE1=追憶の破片(GAME EDIT)
TTITLE2=追憶の破片(ORIGINAL KARAOKE)
TTITLE3=追憶の破片(OFF VOCAL EDIT)
EXTD=YEAR: 2004
EXTT0=
EXTT1=
EXTT2=
EXTT3=
PLAYORDER=
